<!-- ============================================
     ICONS - SVG Icon Components
     Reusable SVG icons for e-commerce
     ============================================ -->

<!-- Shopping Cart Icon -->
<svg id="icon-shopping-cart" xmlns="http://www.w3.org/2000/svg" width="24" height="24" viewBox="0 0 24 24" fill="none" stroke="currentColor" stroke-width="2" stroke-linecap="round" stroke-linejoin="round">
  <circle cx="9" cy="21" r="1"></circle>
  <circle cx="20" cy="21" r="1"></circle>
  <path d="M1 1h4l2.68 13.39a2 2 0 0 0 2 1.61h9.72a2 2 0 0 0 2-1.61L23 6H6"></path>
</svg>

<!-- Heart Icon -->
<svg id="icon-heart" xmlns="http://www.w3.org/2000/svg" width="24" height="24" viewBox="0 0 24 24" fill="none" stroke="currentColor" stroke-width="2" stroke-linecap="round" stroke-linejoin="round">
  <path d="M20.84 4.61a5.5 5.5 0 0 0-7.78 0L12 5.67l-1.06-1.06a5.5 5.5 0 0 0-7.78 7.78l1.06 1.06L12 21.23l7.78-7.78 1.06-1.06a5.5 5.5 0 0 0 0-7.78z"></path>
</svg>

<!-- Star Icon -->
<svg id="icon-star" xmlns="http://www.w3.org/2000/svg" width="24" height="24" viewBox="0 0 24 24" fill="none" stroke="currentColor" stroke-width="2" stroke-linecap="round" stroke-linejoin="round">
  <polygon points="12 2 15.09 8.26 22 9.27 17 14.14 18.18 21.02 12 17.77 5.82 21.02 7 14.14 2 9.27 8.91 8.26 12 2"></polygon>
</svg>

<!-- Share Icon -->
<svg id="icon-share" xmlns="http://www.w3.org/2000/svg" width="24" height="24" viewBox="0 0 24 24" fill="none" stroke="currentColor" stroke-width="2" stroke-linecap="round" stroke-linejoin="round">
  <circle cx="18" cy="5" r="3"></circle>
  <circle cx="6" cy="12" r="3"></circle>
  <circle cx="18" cy="19" r="3"></circle>
  <line x1="8.59" y1="13.51" x2="15.42" y2="17.49"></line>
  <line x1="15.41" y1="6.51" x2="8.59" y2="10.49"></line>
</svg>

<!-- Eye Icon (View) -->
<svg id="icon-eye" xmlns="http://www.w3.org/2000/svg" width="24" height="24" viewBox="0 0 24 24" fill="none" stroke="currentColor" stroke-width="2" stroke-linecap="round" stroke-linejoin="round">
  <path d="M1 12s4-8 11-8 11 8 11 8-4 8-11 8-11-8-11-8z"></path>
  <circle cx="12" cy="12" r="3"></circle>
</svg>

<!-- Trash Icon (Delete) -->
<svg id="icon-trash" xmlns="http://www.w3.org/2000/svg" width="24" height="24" viewBox="0 0 24 24" fill="none" stroke="currentColor" stroke-width="2" stroke-linecap="round" stroke-linejoin="round">
  <polyline points="3 6 5 6 21 6"></polyline>
  <path d="M19 6v14a2 2 0 0 1-2 2H7a2 2 0 0 1-2-2V6m3 0V4a2 2 0 0 1 2-2h4a2 2 0 0 1 2 2v2"></path>
  <line x1="10" y1="11" x2="10" y2="17"></line>
  <line x1="14" y1="11" x2="14" y2="17"></line>
</svg>

<!-- Edit Icon -->
<svg id="icon-edit" xmlns="http://www.w3.org/2000/svg" width="24" height="24" viewBox="0 0 24 24" fill="none" stroke="currentColor" stroke-width="2" stroke-linecap="round" stroke-linejoin="round">
  <path d="M11 4H4a2 2 0 0 0-2 2v14a2 2 0 0 0 2 2h14a2 2 0 0 0 2-2v-7"></path>
  <path d="M18.5 2.5a2.121 2.121 0 0 1 3 3L12 15l-4 1 1-4 9.5-9.5z"></path>
</svg>

<!-- Plus Icon (Add) -->
<svg id="icon-plus" xmlns="http://www.w3.org/2000/svg" width="24" height="24" viewBox="0 0 24 24" fill="none" stroke="currentColor" stroke-width="2" stroke-linecap="round" stroke-linejoin="round">
  <line x1="12" y1="5" x2="12" y2="19"></line>
  <line x1="5" y1="12" x2="19" y2="12"></line>
</svg>

<!-- Minus Icon -->
<svg id="icon-minus" xmlns="http://www.w3.org/2000/svg" width="24" height="24" viewBox="0 0 24 24" fill="none" stroke="currentColor" stroke-width="2" stroke-linecap="round" stroke-linejoin="round">
  <line x1="5" y1="12" x2="19" y2="12"></line>
</svg>

<!-- Check Icon -->
<svg id="icon-check" xmlns="http://www.w3.org/2000/svg" width="24" height="24" viewBox="0 0 24 24" fill="none" stroke="currentColor" stroke-width="2" stroke-linecap="round" stroke-linejoin="round">
  <polyline points="20 6 9 17 4 12"></polyline>
</svg>

<!-- X Icon (Close) -->
<svg id="icon-x" xmlns="http://www.w3.org/2000/svg" width="24" height="24" viewBox="0 0 24 24" fill="none" stroke="currentColor" stroke-width="2" stroke-linecap="round" stroke-linejoin="round">
  <line x1="18" y1="6" x2="6" y2="18"></line>
  <line x1="6" y1="6" x2="18" y2="18"></line>
</svg>

<!-- Chevron Down Icon -->
<svg id="icon-chevron-down" xmlns="http://www.w3.org/2000/svg" width="24" height="24" viewBox="0 0 24 24" fill="none" stroke="currentColor" stroke-width="2" stroke-linecap="round" stroke-linejoin="round">
  <polyline points="6 9 12 15 18 9"></polyline>
</svg>

<!-- Chevron Left Icon -->
<svg id="icon-chevron-left" xmlns="http://www.w3.org/2000/svg" width="24" height="24" viewBox="0 0 24 24" fill="none" stroke="currentColor" stroke-width="2" stroke-linecap="round" stroke-linejoin="round">
  <polyline points="15 18 9 12 15 6"></polyline>
</svg>

<!-- Chevron Right Icon -->
<svg id="icon-chevron-right" xmlns="http://www.w3.org/2000/svg" width="24" height="24" viewBox="0 0 24 24" fill="none" stroke="currentColor" stroke-width="2" stroke-linecap="round" stroke-linejoin="round">
  <polyline points="9 18 15 12 9 6"></polyline>
</svg>

<!-- Search Icon -->
<svg id="icon-search" xmlns="http://www.w3.org/2000/svg" width="24" height="24" viewBox="0 0 24 24" fill="none" stroke="currentColor" stroke-width="2" stroke-linecap="round" stroke-linejoin="round">
  <circle cx="11" cy="11" r="8"></circle>
  <line x1="21" y1="21" x2="16.65" y2="16.65"></line>
</svg>

<!-- User Icon -->
<svg id="icon-user" xmlns="http://www.w3.org/2000/svg" width="24" height="24" viewBox="0 0 24 24" fill="none" stroke="currentColor" stroke-width="2" stroke-linecap="round" stroke-linejoin="round">
  <path d="M20 21v-2a4 4 0 0 0-4-4H8a4 4 0 0 0-4 4v2"></path>
  <circle cx="12" cy="7" r="4"></circle>
</svg>

<!-- Menu Icon -->
<svg id="icon-menu" xmlns="http://www.w3.org/2000/svg" width="24" height="24" viewBox="0 0 24 24" fill="none" stroke="currentColor" stroke-width="2" stroke-linecap="round" stroke-linejoin="round">
  <line x1="3" y1="12" x2="21" y2="12"></line>
  <line x1="3" y1="6" x2="21" y2="6"></line>
  <line x1="3" y1="18" x2="21" y2="18"></line>
</svg>

<!-- Filter Icon -->
<svg id="icon-filter" xmlns="http://www.w3.org/2000/svg" width="24" height="24" viewBox="0 0 24 24" fill="none" stroke="currentColor" stroke-width="2" stroke-linecap="round" stroke-linejoin="round">
  <polygon points="22 3 2 3 10 12.46 10 19 14 21 14 12.46 22 3"></polygon>
</svg>

<!-- Download Icon -->
<svg id="icon-download" xmlns="http://www.w3.org/2000/svg" width="24" height="24" viewBox="0 0 24 24" fill="none" stroke="currentColor" stroke-width="2" stroke-linecap="round" stroke-linejoin="round">
  <path d="M21 15v4a2 2 0 0 1-2 2H5a2 2 0 0 1-2-2v-4"></path>
  <polyline points="7 10 12 15 17 10"></polyline>
  <line x1="12" y1="15" x2="12" y2="3"></line>
</svg>

<!-- Upload Icon -->
<svg id="icon-upload" xmlns="http://www.w3.org/2000/svg" width="24" height="24" viewBox="0 0 24 24" fill="none" stroke="currentColor" stroke-width="2" stroke-linecap="round" stroke-linejoin="round">
  <path d="M21 15v4a2 2 0 0 1-2 2H5a2 2 0 0 1-2-2v-4"></path>
  <polyline points="17 8 12 3 7 8"></polyline>
  <line x1="12" y1="3" x2="12" y2="15"></line>
</svg>

<!-- Settings Icon -->
<svg id="icon-settings" xmlns="http://www.w3.org/2000/svg" width="24" height="24" viewBox="0 0 24 24" fill="none" stroke="currentColor" stroke-width="2" stroke-linecap="round" stroke-linejoin="round">
  <circle cx="12" cy="12" r="3"></circle>
  <path d="M19.4 15a1.65 1.65 0 0 0 .33 1.82l.06.06a2 2 0 0 1 0 2.83 2 2 0 0 1-2.83 0l-.06-.06a1.65 1.65 0 0 0-1.82-.33 1.65 1.65 0 0 0-1 1.51V21a2 2 0 0 1-2 2 2 2 0 0 1-2-2v-.09A1.65 1.65 0 0 0 9 19.4a1.65 1.65 0 0 0-1.82.33l-.06.06a2 2 0 0 1-2.83 0 2 2 0 0 1 0-2.83l.06-.06a1.65 1.65 0 0 0 .33-1.82 1.65 1.65 0 0 0-1.51-1H3a2 2 0 0 1-2-2 2 2 0 0 1 2-2h.09A1.65 1.65 0 0 0 4.6 9a1.65 1.65 0 0 0-.33-1.82l-.06-.06a2 2 0 0 1 0-2.83 2 2 0 0 1 2.83 0l.06.06a1.65 1.65 0 0 0 1.82.33H9a1.65 1.65 0 0 0 1-1.51V3a2 2 0 0 1 2-2 2 2 0 0 1 2 2v.09a1.65 1.65 0 0 0 1 1.51 1.65 1.65 0 0 0 1.82-.33l.06-.06a2 2 0 0 1 2.83 0 2 2 0 0 1 0 2.83l-.06.06a1.65 1.65 0 0 0-.33 1.82V9a1.65 1.65 0 0 0 1.51 1H21a2 2 0 0 1 2 2 2 2 0 0 1-2 2h-.09a1.65 1.65 0 0 0-1.51 1z"></path>
</svg>

<!-- Bell Icon (Notifications) -->
<svg id="icon-bell" xmlns="http://www.w3.org/2000/svg" width="24" height="24" viewBox="0 0 24 24" fill="none" stroke="currentColor" stroke-width="2" stroke-linecap="round" stroke-linejoin="round">
  <path d="M18 8A6 6 0 0 0 6 8c0 7-3 9-3 9h18s-3-2-3-9"></path>
  <path d="M13.73 21a2 2 0 0 1-3.46 0"></path>
</svg>

<!-- Home Icon -->
<svg id="icon-home" xmlns="http://www.w3.org/2000/svg" width="24" height="24" viewBox="0 0 24 24" fill="none" stroke="currentColor" stroke-width="2" stroke-linecap="round" stroke-linejoin="round">
  <path d="M3 9l9-7 9 7v11a2 2 0 0 1-2 2H5a2 2 0 0 1-2-2z"></path>
  <polyline points="9 22 9 12 15 12 15 22"></polyline>
</svg>

<!-- Package Icon -->
<svg id="icon-package" xmlns="http://www.w3.org/2000/svg" width="24" height="24" viewBox="0 0 24 24" fill="none" stroke="currentColor" stroke-width="2" stroke-linecap="round" stroke-linejoin="round">
  <line x1="16.5" y1="9.4" x2="7.5" y2="4.21"></line>
  <path d="M21 16V8a2 2 0 0 0-1-1.73l-7-4a2 2 0 0 0-2 0l-7 4A2 2 0 0 0 3 8v8a2 2 0 0 0 1 1.73l7 4a2 2 0 0 0 2 0l7-4A2 2 0 0 0 21 16z"></path>
  <polyline points="3.27 6.96 12 12.01 20.73 6.96"></polyline>
  <line x1="12" y1="22.08" x2="12" y2="12"></line>
</svg>

<!-- Credit Card Icon -->
<svg id="icon-credit-card" xmlns="http://www.w3.org/2000/svg" width="24" height="24" viewBox="0 0 24 24" fill="none" stroke="currentColor" stroke-width="2" stroke-linecap="round" stroke-linejoin="round">
  <rect x="1" y="4" width="22" height="16" rx="2" ry="2"></rect>
  <line x1="1" y1="10" x2="23" y2="10"></line>
</svg>

<!-- Truck Icon (Delivery) -->
<svg id="icon-truck" xmlns="http://www.w3.org/2000/svg" width="24" height="24" viewBox="0 0 24 24" fill="none" stroke="currentColor" stroke-width="2" stroke-linecap="round" stroke-linejoin="round">
  <rect x="1" y="3" width="15" height="13"></rect>
  <polygon points="16 8 20 8 23 11 23 16 16 16 16 8"></polygon>
  <circle cx="5.5" cy="18.5" r="2.5"></circle>
  <circle cx="18.5" cy="18.5" r="2.5"></circle>
</svg>

<!-- Tag Icon -->
<svg id="icon-tag" xmlns="http://www.w3.org/2000/svg" width="24" height="24" viewBox="0 0 24 24" fill="none" stroke="currentColor" stroke-width="2" stroke-linecap="round" stroke-linejoin="round">
  <path d="M20.59 13.41l-7.17 7.17a2 2 0 0 1-2.83 0L2 12V2h10l8.59 8.59a2 2 0 0 1 0 2.82z"></path>
  <line x1="7" y1="7" x2="7.01" y2="7"></line>
</svg>

<!-- Dollar/Price Icon -->
<svg id="icon-dollar" xmlns="http://www.w3.org/2000/svg" width="24" height="24" viewBox="0 0 24 24" fill="none" stroke="currentColor" stroke-width="2" stroke-linecap="round" stroke-linejoin="round">
  <line x1="12" y1="1" x2="12" y2="23"></line>
  <path d="M17 5H9.5a3.5 3.5 0 0 0 0 7h5a3.5 3.5 0 0 1 0 7H6"></path>
</svg>

<!-- Message/Chat Icon -->
<svg id="icon-message" xmlns="http://www.w3.org/2000/svg" width="24" height="24" viewBox="0 0 24 24" fill="none" stroke="currentColor" stroke-width="2" stroke-linecap="round" stroke-linejoin="round">
  <path d="M21 15a2 2 0 0 1-2 2H7l-4 4V5a2 2 0 0 1 2-2h14a2 2 0 0 1 2 2z"></path>
</svg>

<!-- Phone Icon -->
<svg id="icon-phone" xmlns="http://www.w3.org/2000/svg" width="24" height="24" viewBox="0 0 24 24" fill="none" stroke="currentColor" stroke-width="2" stroke-linecap="round" stroke-linejoin="round">
  <path d="M22 16.92v3a2 2 0 0 1-2.18 2 19.79 19.79 0 0 1-8.63-3.07 19.5 19.5 0 0 1-6-6 19.79 19.79 0 0 1-3.07-8.67A2 2 0 0 1 4.11 2h3a2 2 0 0 1 2 1.72 12.84 12.84 0 0 0 .7 2.81 2 2 0 0 1-.45 2.11L8.09 9.91a16 16 0 0 0 6 6l1.27-1.27a2 2 0 0 1 2.11-.45 12.84 12.84 0 0 0 2.81.7A2 2 0 0 1 22 16.92z"></path>
</svg>

<!-- Mail Icon -->
<svg id="icon-mail" xmlns="http://www.w3.org/2000/svg" width="24" height="24" viewBox="0 0 24 24" fill="none" stroke="currentColor" stroke-width="2" stroke-linecap="round" stroke-linejoin="round">
  <path d="M4 4h16c1.1 0 2 .9 2 2v12c0 1.1-.9 2-2 2H4c-1.1 0-2-.9-2-2V6c0-1.1.9-2 2-2z"></path>
  <polyline points="22,6 12,13 2,6"></polyline>
</svg>

<!-- Location/Map Pin Icon -->
<svg id="icon-map-pin" xmlns="http://www.w3.org/2000/svg" width="24" height="24" viewBox="0 0 24 24" fill="none" stroke="currentColor" stroke-width="2" stroke-linecap="round" stroke-linejoin="round">
  <path d="M21 10c0 7-9 13-9 13s-9-6-9-13a9 9 0 0 1 18 0z"></path>
  <circle cx="12" cy="10" r="3"></circle>
</svg>

<!-- Clock Icon -->
<svg id="icon-clock" xmlns="http://www.w3.org/2000/svg" width="24" height="24" viewBox="0 0 24 24" fill="none" stroke="currentColor" stroke-width="2" stroke-linecap="round" stroke-linejoin="round">
  <circle cx="12" cy="12" r="10"></circle>
  <polyline points="12 6 12 12 16 14"></polyline>
</svg>

<!-- Calendar Icon -->
<svg id="icon-calendar" xmlns="http://www.w3.org/2000/svg" width="24" height="24" viewBox="0 0 24 24" fill="none" stroke="currentColor" stroke-width="2" stroke-linecap="round" stroke-linejoin="round">
  <rect x="3" y="4" width="18" height="18" rx="2" ry="2"></rect>
  <line x1="16" y1="2" x2="16" y2="6"></line>
  <line x1="8" y1="2" x2="8" y2="6"></line>
  <line x1="3" y1="10" x2="21" y2="10"></line>
</svg>

<!-- Lock Icon -->
<svg id="icon-lock" xmlns="http://www.w3.org/2000/svg" width="24" height="24" viewBox="0 0 24 24" fill="none" stroke="currentColor" stroke-width="2" stroke-linecap="round" stroke-linejoin="round">
  <rect x="3" y="11" width="18" height="11" rx="2" ry="2"></rect>
  <path d="M7 11V7a5 5 0 0 1 10 0v4"></path>
</svg>

<!-- Unlock Icon -->
<svg id="icon-unlock" xmlns="http://www.w3.org/2000/svg" width="24" height="24" viewBox="0 0 24 24" fill="none" stroke="currentColor" stroke-width="2" stroke-linecap="round" stroke-linejoin="round">
  <rect x="3" y="11" width="18" height="11" rx="2" ry="2"></rect>
  <path d="M7 11V7a5 5 0 0 1 9.9-1"></path>
</svg>

<!-- Arrow Up Icon -->
<svg id="icon-arrow-up" xmlns="http://www.w3.org/2000/svg" width="24" height="24" viewBox="0 0 24 24" fill="none" stroke="currentColor" stroke-width="2" stroke-linecap="round" stroke-linejoin="round">
  <line x1="12" y1="19" x2="12" y2="5"></line>
  <polyline points="5 12 12 5 19 12"></polyline>
</svg>

<!-- Arrow Down Icon -->
<svg id="icon-arrow-down" xmlns="http://www.w3.org/2000/svg" width="24" height="24" viewBox="0 0 24 24" fill="none" stroke="currentColor" stroke-width="2" stroke-linecap="round" stroke-linejoin="round">
  <line x1="12" y1="5" x2="12" y2="19"></line>
  <polyline points="19 12 12 19 5 12"></polyline>
</svg>

<!-- Arrow Left Icon -->
<svg id="icon-arrow-left" xmlns="http://www.w3.org/2000/svg" width="24" height="24" viewBox="0 0 24 24" fill="none" stroke="currentColor" stroke-width="2" stroke-linecap="round" stroke-linejoin="round">
  <line x1="19" y1="12" x2="5" y2="12"></line>
  <polyline points="12 19 5 12 12 5"></polyline>
</svg>

<!-- Arrow Right Icon -->
<svg id="icon-arrow-right" xmlns="http://www.w3.org/2000/svg" width="24" height="24" viewBox="0 0 24 24" fill="none" stroke="currentColor" stroke-width="2" stroke-linecap="round" stroke-linejoin="round">
  <line x1="5" y1="12" x2="19" y2="12"></line>
  <polyline points="12 5 19 12 12 19"></polyline>
</svg>

<!-- External Link Icon -->
<svg id="icon-external-link" xmlns="http://www.w3.org/2000/svg" width="24" height="24" viewBox="0 0 24 24" fill="none" stroke="currentColor" stroke-width="2" stroke-linecap="round" stroke-linejoin="round">
  <path d="M18 13v6a2 2 0 0 1-2 2H5a2 2 0 0 1-2-2V8a2 2 0 0 1 2-2h6"></path>
  <polyline points="15 3 21 3 21 9"></polyline>
  <line x1="10" y1="14" x2="21" y2="3"></line>
</svg>

<!-- Link Icon -->
<svg id="icon-link" xmlns="http://www.w3.org/2000/svg" width="24" height="24" viewBox="0 0 24 24" fill="none" stroke="currentColor" stroke-width="2" stroke-linecap="round" stroke-linejoin="round">
  <path d="M10 13a5 5 0 0 0 7.54.54l3-3a5 5 0 0 0-7.07-7.07l-1.72 1.71"></path>
  <path d="M14 11a5 5 0 0 0-7.54-.54l-3 3a5 5 0 0 0 7.07 7.07l1.71-1.71"></path>
</svg>

<!-- Image Icon -->
<svg id="icon-image" xmlns="http://www.w3.org/2000/svg" width="24" height="24" viewBox="0 0 24 24" fill="none" stroke="currentColor" stroke-width="2" stroke-linecap="round" stroke-linejoin="round">
  <rect x="3" y="3" width="18" height="18" rx="2" ry="2"></rect>
  <circle cx="8.5" cy="8.5" r="1.5"></circle>
  <polyline points="21 15 16 10 5 21"></polyline>
</svg>

<!-- Video Icon -->
<svg id="icon-video" xmlns="http://www.w3.org/2000/svg" width="24" height="24" viewBox="0 0 24 24" fill="none" stroke="currentColor" stroke-width="2" stroke-linecap="round" stroke-linejoin="round">
  <polygon points="23 7 16 12 23 17 23 7"></polygon>
  <rect x="1" y="5" width="15" height="14" rx="2" ry="2"></rect>
</svg>

<!-- File Icon -->
<svg id="icon-file" xmlns="http://www.w3.org/2000/svg" width="24" height="24" viewBox="0 0 24 24" fill="none" stroke="currentColor" stroke-width="2" stroke-linecap="round" stroke-linejoin="round">
  <path d="M13 2H6a2 2 0 0 0-2 2v16a2 2 0 0 0 2 2h12a2 2 0 0 0 2-2V9z"></path>
  <polyline points="13 2 13 9 20 9"></polyline>
</svg>

<!-- Folder Icon -->
<svg id="icon-folder" xmlns="http://www.w3.org/2000/svg" width="24" height="24" viewBox="0 0 24 24" fill="none" stroke="currentColor" stroke-width="2" stroke-linecap="round" stroke-linejoin="round">
  <path d="M22 19a2 2 0 0 1-2 2H4a2 2 0 0 1-2-2V5a2 2 0 0 1 2-2h5l2 3h9a2 2 0 0 1 2 2z"></path>
</svg>

<!-- Alert/Warning Icon -->
<svg id="icon-alert" xmlns="http://www.w3.org/2000/svg" width="24" height="24" viewBox="0 0 24 24" fill="none" stroke="currentColor" stroke-width="2" stroke-linecap="round" stroke-linejoin="round">
  <circle cx="12" cy="12" r="10"></circle>
  <line x1="12" y1="8" x2="12" y2="12"></line>
  <line x1="12" y1="16" x2="12.01" y2="16"></line>
</svg>

<!-- Info Icon -->
<svg id="icon-info" xmlns="http://www.w3.org/2000/svg" width="24" height="24" viewBox="0 0 24 24" fill="none" stroke="currentColor" stroke-width="2" stroke-linecap="round" stroke-linejoin="round">
  <circle cx="12" cy="12" r="10"></circle>
  <line x1="12" y1="16" x2="12" y2="12"></line>
  <line x1="12" y1="8" x2="12.01" y2="8"></line>
</svg>

<!-- Help/Question Mark Icon -->
<svg id="icon-help" xmlns="http://www.w3.org/2000/svg" width="24" height="24" viewBox="0 0 24 24" fill="none" stroke="currentColor" stroke-width="2" stroke-linecap="round" stroke-linejoin="round">
  <circle cx="12" cy="12" r="10"></circle>
  <path d="M9.09 9a3 3 0 0 1 5.83 1c0 2-3 3-3 3"></path>
  <line x1="12" y1="17" x2="12.01" y2="17"></line>
</svg>

<!-- Thumbs Up Icon -->
<svg id="icon-thumbs-up" xmlns="http://www.w3.org/2000/svg" width="24" height="24" viewBox="0 0 24 24" fill="none" stroke="currentColor" stroke-width="2" stroke-linecap="round" stroke-linejoin="round">
  <path d="M14 9V5a3 3 0 0 0-3-3l-4 9v11h11.28a2 2 0 0 0 2-1.7l1.38-9a2 2 0 0 0-2-2.3zM7 22H4a2 2 0 0 1-2-2v-7a2 2 0 0 1 2-2h3"></path>
</svg>

<!-- Thumbs Down Icon -->
<svg id="icon-thumbs-down" xmlns="http://www.w3.org/2000/svg" width="24" height="24" viewBox="0 0 24 24" fill="none" stroke="currentColor" stroke-width="2" stroke-linecap="round" stroke-linejoin="round">
  <path d="M10 15v4a3 3 0 0 0 3 3l4-9V2H5.72a2 2 0 0 0-2 1.7l-1.38 9a2 2 0 0 0 2 2.3zm7-13h2.67A2.31 2.31 0 0 1 22 4v7a2.31 2.31 0 0 1-2.33 2H17"></path>
</svg>

<!-- Refresh/Reload Icon -->
<svg id="icon-refresh" xmlns="http://www.w3.org/2000/svg" width="24" height="24" viewBox="0 0 24 24" fill="none" stroke="currentColor" stroke-width="2" stroke-linecap="round" stroke-linejoin="round">
  <polyline points="23 4 23 10 17 10"></polyline>
  <polyline points="1 20 1 14 7 14"></polyline>
  <path d="M3.51 9a9 9 0 0 1 14.85-3.36L23 10M1 14l4.64 4.36A9 9 0 0 0 20.49 15"></path>
</svg>

<!-- More Vertical Icon -->
<svg id="icon-more-vertical" xmlns="http://www.w3.org/2000/svg" width="24" height="24" viewBox="0 0 24 24" fill="none" stroke="currentColor" stroke-width="2" stroke-linecap="round" stroke-linejoin="round">
  <circle cx="12" cy="12" r="1"></circle>
  <circle cx="12" cy="5" r="1"></circle>
  <circle cx="12" cy="19" r="1"></circle>
</svg>

<!-- More Horizontal Icon -->
<svg id="icon-more-horizontal" xmlns="http://www.w3.org/2000/svg" width="24" height="24" viewBox="0 0 24 24" fill="none" stroke="currentColor" stroke-width="2" stroke-linecap="round" stroke-linejoin="round">
  <circle cx="12" cy="12" r="1"></circle>
  <circle cx="19" cy="12" r="1"></circle>
  <circle cx="5" cy="12" r="1"></circle>
</svg>

<!-- Grid Icon -->
<svg id="icon-grid" xmlns="http://www.w3.org/2000/svg" width="24" height="24" viewBox="0 0 24 24" fill="none" stroke="currentColor" stroke-width="2" stroke-linecap="round" stroke-linejoin="round">
  <rect x="3" y="3" width="7" height="7"></rect>
  <rect x="14" y="3" width="7" height="7"></rect>
  <rect x="14" y="14" width="7" height="7"></rect>
  <rect x="3" y="14" width="7" height="7"></rect>
</svg>

<!-- List Icon -->
<svg id="icon-list" xmlns="http://www.w3.org/2000/svg" width="24" height="24" viewBox="0 0 24 24" fill="none" stroke="currentColor" stroke-width="2" stroke-linecap="round" stroke-linejoin="round">
  <line x1="8" y1="6" x2="21" y2="6"></line>
  <line x1="8" y1="12" x2="21" y2="12"></line>
  <line x1="8" y1="18" x2="21" y2="18"></line>
  <line x1="3" y1="6" x2="3.01" y2="6"></line>
  <line x1="3" y1="12" x2="3.01" y2="12"></line>
  <line x1="3" y1="18" x2="3.01" y2="18"></line>
</svg>

<!-- Layout Icon -->
<svg id="icon-layout" xmlns="http://www.w3.org/2000/svg" width="24" height="24" viewBox="0 0 24 24" fill="none" stroke="currentColor" stroke-width="2" stroke-linecap="round" stroke-linejoin="round">
  <rect x="3" y="3" width="18" height="18" rx="2" ry="2"></rect>
  <line x1="3" y1="9" x2="21" y2="9"></line>
  <line x1="9" y1="21" x2="9" y2="9"></line>
</svg>

<!-- Zap/Flash Icon -->
<svg id="icon-zap" xmlns="http://www.w3.org/2000/svg" width="24" height="24" viewBox="0 0 24 24" fill="none" stroke="currentColor" stroke-width="2" stroke-linecap="round" stroke-linejoin="round">
  <polygon points="13 2 3 14 12 14 11 22 21 10 12 10 13 2"></polygon>
</svg>

<!-- Award/Badge Icon -->
<svg id="icon-award" xmlns="http://www.w3.org/2000/svg" width="24" height="24" viewBox="0 0 24 24" fill="none" stroke="currentColor" stroke-width="2" stroke-linecap="round" stroke-linejoin="round">
  <circle cx="12" cy="8" r="7"></circle>
  <polyline points="8.21 13.89 7 23 12 20 17 23 15.79 13.88"></polyline>
</svg>

<!-- Gift Icon -->
<svg id="icon-gift" xmlns="http://www.w3.org/2000/svg" width="24" height="24" viewBox="0 0 24 24" fill="none" stroke="currentColor" stroke-width="2" stroke-linecap="round" stroke-linejoin="round">
  <polyline points="20 12 20 22 4 22 4 12"></polyline>
  <rect x="2" y="7" width="20" height="5"></rect>
  <line x1="12" y1="22" x2="12" y2="7"></line>
  <path d="M12 7H7.5a2.5 2.5 0 0 1 0-5C11 2 12 7 12 7z"></path>
  <path d="M12 7h4.5a2.5 2.5 0 0 0 0-5C13 2 12 7 12 7z"></path>
</svg>

<!-- Trending Up Icon -->
<svg id="icon-trending-up" xmlns="http://www.w3.org/2000/svg" width="24" height="24" viewBox="0 0 24 24" fill="none" stroke="currentColor" stroke-width="2" stroke-linecap="round" stroke-linejoin="round">
  <polyline points="23 6 13.5 15.5 8.5 10.5 1 18"></polyline>
  <polyline points="17 6 23 6 23 12"></polyline>
</svg>

<!-- Trending Down Icon -->
<svg id="icon-trending-down" xmlns="http://www.w3.org/2000/svg" width="24" height="24" viewBox="0 0 24 24" fill="none" stroke="currentColor" stroke-width="2" stroke-linecap="round" stroke-linejoin="round">
  <polyline points="23 18 13.5 8.5 8.5 13.5 1 6"></polyline>
  <polyline points="17 18 23 18 23 12"></polyline>
</svg>

<!-- Activity Icon -->
<svg id="icon-activity" xmlns="http://www.w3.org/2000/svg" width="24" height="24" viewBox="0 0 24 24" fill="none" stroke="currentColor" stroke-width="2" stroke-linecap="round" stroke-linejoin="round">
  <polyline points="22 12 18 12 15 21 9 3 6 12 2 12"></polyline>
</svg>

<!-- Wifi Icon -->
<svg id="icon-wifi" xmlns="http://www.w3.org/2000/svg" width="24" height="24" viewBox="0 0 24 24" fill="none" stroke="currentColor" stroke-width="2" stroke-linecap="round" stroke-linejoin="round">
  <path d="M5 12.55a11 11 0 0 1 14.08 0"></path>
  <path d="M1.42 9a16 16 0 0 1 21.16 0"></path>
  <path d="M8.53 16.11a6 6 0 0 1 6.95 0"></path>
  <line x1="12" y1="20" x2="12.01" y2="20"></line>
</svg>

<!-- Battery Icon -->
<svg id="icon-battery" xmlns="http://www.w3.org/2000/svg" width="24" height="24" viewBox="0 0 24 24" fill="none" stroke="currentColor" stroke-width="2" stroke-linecap="round" stroke-linejoin="round">
  <rect x="1" y="6" width="18" height="12" rx="2" ry="2"></rect>
  <line x1="23" y1="13" x2="23" y2="11"></line>
</svg>

<!-- Power Icon -->
<svg id="icon-power" xmlns="http://www.w3.org/2000/svg" width="24" height="24" viewBox="0 0 24 24" fill="none" stroke="currentColor" stroke-width="2" stroke-linecap="round" stroke-linejoin="round">
  <path d="M18.36 6.64a9 9 0 1 1-12.73 0"></path>
  <line x1="12" y1="2" x2="12" y2="12"></line>
</svg>

<!-- Bookmark Icon -->
<svg id="icon-bookmark" xmlns="http://www.w3.org/2000/svg" width="24" height="24" viewBox="0 0 24 24" fill="none" stroke="currentColor" stroke-width="2" stroke-linecap="round" stroke-linejoin="round">
  <path d="M19 21l-7-5-7 5V5a2 2 0 0 1 2-2h10a2 2 0 0 1 2 2z"></path>
</svg>

<!-- Flag Icon -->
<svg id="icon-flag" xmlns="http://www.w3.org/2000/svg" width="24" height="24" viewBox="0 0 24 24" fill="none" stroke="currentColor" stroke-width="2" stroke-linecap="round" stroke-linejoin="round">
  <path d="M4 15s1-1 4-1 5 2 8 2 4-1 4-1V3s-1 1-4 1-5-2-8-2-4 1-4 1z"></path>
  <line x1="4" y1="22" x2="4" y2="15"></line>
</svg>

<!-- Report Icon -->
<svg id="icon-report" xmlns="http://www.w3.org/2000/svg" width="24" height="24" viewBox="0 0 24 24" fill="none" stroke="currentColor" stroke-width="2" stroke-linecap="round" stroke-linejoin="round">
  <path d="M10.29 3.86L1.82 18a2 2 0 0 0 1.71 3h16.94a2 2 0 0 0 1.71-3L13.71 3.86a2 2 0 0 0-3.42 0z"></path>
  <line x1="12" y1="9" x2="12" y2="13"></line>
  <line x1="12" y1="17" x2="12.01" y2="17"></line>
</svg>

<!-- Shield/Security Icon -->
<svg id="icon-shield" xmlns="http://www.w3.org/2000/svg" width="24" height="24" viewBox="0 0 24 24" fill="none" stroke="currentColor" stroke-width="2" stroke-linecap="round" stroke-linejoin="round">
  <path d="M12 22s8-4 8-10V5l-8-3-8 3v7c0 6 8 10 8 10z"></path>
</svg>

<!-- Verified Icon -->
<svg id="icon-verified" xmlns="http://www.w3.org/2000/svg" width="24" height="24" viewBox="0 0 24 24" fill="none" stroke="currentColor" stroke-width="2" stroke-linecap="round" stroke-linejoin="round">
  <path d="M22 11.08V12a10 10 0 1 1-5.93-9.14"></path>
  <polyline points="22 4 12 14.01 9 11.01"></polyline>
</svg>
